<svg xmlns="http://www.w3.org/2000/svg" width="41" height="39.481" viewBox="0 0 41 39.481"><defs><style>.a{fill:none;stroke-linecap:round;stroke-linejoin:round;stroke-width:2.5px;}.a,.b{stroke:#fff;}.b{fill:#fff;}</style></defs><g transform="translate(-873.75 -558.75)"><path class="a" d="M223.28,470.671l1.757-1.756,8.56-8.56,1.757-1.757.4-.4a6.125,6.125,0,0,0,0-8.662l-2.8-2.8-6.491,6.491,2.959,2.959-8.56,8.56-2.959-2.96-6.491,6.493,2.8,2.8a6.126,6.126,0,0,0,8.662,0Z" transform="translate(675.948 124.113)"/><path class="a" d="M216.93,443.752a10.363,10.363,0,1,0-12.537,10.131l2.174,4.795,2.173-4.795A10.365,10.365,0,0,0,216.93,443.752Z" transform="translate(678.796 126.611)"/><line class="b" x2="0.641" transform="translate(881.06 570.38)"/><line class="a" x2="0.641" transform="translate(881.06 570.38)"/><line class="b" x2="0.641" transform="translate(885.043 570.38)"/><line class="a" x2="0.641" transform="translate(885.043 570.38)"/><line class="b" x2="0.641" transform="translate(889.026 570.38)"/><line class="a" x2="0.641" transform="translate(889.026 570.38)"/></g></svg>