<svg xmlns="http://www.w3.org/2000/svg" width="37.418" height="31.062" viewBox="0 0 37.418 31.062"><defs><style>.a{fill:none;stroke-linecap:round;stroke-linejoin:round;stroke-width:2.5px;}.a,.b{stroke:#fff;}.b{fill:#c3e0fc;}.c{fill:#fff;}</style></defs><g transform="translate(-1156.698 -381.75)"><rect class="a" width="32.374" height="19.454" transform="translate(1159.221 392.108)"/><rect class="a" width="34.918" height="7.219" transform="translate(1157.948 384.888)"/><line class="b" y1="3.778" transform="translate(1188.565 383)"/><line class="a" y1="3.778" transform="translate(1188.565 383)"/><line class="b" y1="3.778" transform="translate(1183.302 383)"/><line class="a" y1="3.778" transform="translate(1183.302 383)"/><line class="b" y1="3.778" transform="translate(1178.039 383)"/><line class="a" y1="3.778" transform="translate(1178.039 383)"/><line class="b" y1="3.778" transform="translate(1172.776 383)"/><line class="a" y1="3.778" transform="translate(1172.776 383)"/><line class="b" y1="3.778" transform="translate(1167.513 383)"/><line class="a" y1="3.778" transform="translate(1167.513 383)"/><line class="b" y1="3.778" transform="translate(1162.25 383)"/><line class="a" y1="3.778" transform="translate(1162.25 383)"/><rect class="c" width="3.755" height="3.755" transform="translate(1164.519 396.366)"/><rect class="c" width="3.755" height="3.755" transform="translate(1173.518 396.366)"/><rect class="c" width="3.755" height="3.755" transform="translate(1182.516 396.366)"/><rect class="c" width="3.755" height="3.756" transform="translate(1164.519 403.569)"/><rect class="c" width="3.755" height="3.756" transform="translate(1173.518 403.569)"/><rect class="c" width="3.755" height="3.756" transform="translate(1182.516 403.569)"/></g></svg>